# xmcd
#
# Track frame offsets: 
#        150
#        10505
#        25987
#        38540
#        61020
#        75857
#        95147
#        111005
#        126482
#        138112
#        158550
#        174757
#        190567
#        203135
#        218070
#
# Disc length: 3186 seconds
#
# Revision: 3
# Processed by: cddbd v1.5.2PL0 Copyright (c) Steve Scherf et al.
# Submitted via: ExactAudioCopy v0.99pb5
#
DISCID=ab0c700f
DTITLE=Saffire - The Uppity Blues Women - Ain't Gonna Hush
DYEAR=2001
DGENRE=Blues
TTITLE0=Ain't Gonna Hush
TTITLE1=It Takes a Mighty Good Man
TTITLE2=Coffee Flavored Kisses
TTITLE3=Nobody Ever Touched Me There
TTITLE4=He Really Makes It Hard For Me To Sing The Blues
TTITLE5=Blues For Sharon Bottoms
TTITLE6=You Got To Tell Me
TTITLE7=Footprints On The Ceiling
TTITLE8=Let The Gin Do The Talking
TTITLE9=Unlove You
TTITLE10=Prop Me Up Beside The Jukebox
TTITLE11=Birthday Suit
TTITLE12=Happy Birthday To Me
TTITLE13=Once In A While
TTITLE14=If I Should Die Tonight
EXTD=Alligator Records\nALCD4880
EXTT0=
EXTT1=
EXTT2=
EXTT3=
EXTT4=
EXTT5=
EXTT6=
EXTT7=
EXTT8=
EXTT9=
EXTT10=
EXTT11=
EXTT12=
EXTT13=
EXTT14=
PLAYORDER=
